<?xml version="1.0" standalone="no"?><!DOCTYPE svg PUBLIC "-//W3C//DTD SVG 1.1//EN" "http://www.w3.org/Graphics/SVG/1.1/DTD/svg11.dtd"><svg t="1497333567352" class="icon" style="" viewBox="0 0 1024 1024" version="1.1" xmlns="http://www.w3.org/2000/svg" p-id="2078" xmlns:xlink="http://www.w3.org/1999/xlink" width="200" height="200"><defs><style type="text/css"></style></defs><path d="M953.6 185.6H70.4c-12.8 0-25.6-12.8-25.6-25.6-6.4-19.2 6.4-32 25.6-32h883.2c12.8 0 25.6 12.8 25.6 25.6 6.4 19.2-6.4 32-25.6 32z m-281.6-115.2h-320c-12.8 0-25.6-12.8-25.6-25.6s12.8-25.6 25.6-25.6h313.6c12.8 0 25.6 12.8 25.6 25.6 6.4 12.8-6.4 25.6-19.2 25.6zM384 812.8V326.4c0-12.8 12.8-25.6 25.6-25.6s25.6 12.8 25.6 25.6v486.4c0 12.8-12.8 25.6-25.6 25.6s-25.6-12.8-25.6-25.6z m198.4 0V326.4c0-12.8 12.8-25.6 25.6-25.6s25.6 12.8 25.6 25.6v486.4c0 12.8-12.8 25.6-25.6 25.6s-25.6-12.8-25.6-25.6zM185.6 268.8c12.8 0 25.6 12.8 25.6 25.6V896c0 32 25.6 57.6 57.6 57.6h486.4c32 0 57.6-25.6 57.6-57.6V300.8c0-12.8 12.8-25.6 25.6-25.6s25.6 12.8 25.6 25.6v627.2c0 44.8-38.4 83.2-83.2 83.2H243.2c-44.8 0-83.2-38.4-83.2-83.2V300.8c-6.4-19.2 6.4-32 25.6-32z" p-id="2079" fill="#a6b2ad"></path></svg>