<?xml version="1.0" standalone="no"?><!DOCTYPE svg PUBLIC "-//W3C//DTD SVG 1.1//EN" "http://www.w3.org/Graphics/SVG/1.1/DTD/svg11.dtd"><svg t="1497256839718" class="icon" style="" viewBox="0 0 1024 1024" version="1.1" xmlns="http://www.w3.org/2000/svg" p-id="5379" xmlns:xlink="http://www.w3.org/1999/xlink" width="200" height="200"><defs><style type="text/css"></style></defs><path d="M925 889.2 99 889.2c-19.5 0-35.4 15.9-35.4 35.4 0 19.5 15.9 35.4 35.4 35.4L925 960c19.5 0 35.4-15.9 35.4-35.4C960.4 905.1 944.5 889.2 925 889.2zM93.4 897.6c0.9-0.2 1.8-0.3 2.7-0.4C95.2 897.3 94.3 897.4 93.4 897.6zM952.5 922.3c0.1 0.8 0.1 1.5 0.1 2.3 0 1.2-0.1 2.4-0.2 3.6 0.2-1.2 0.2-2.4 0.2-3.6C952.6 923.8 952.5 923.1 952.5 922.3z" p-id="5380" fill="#ffffff"></path><path d="M266.4 795.6c5.4 0 10.8-1.2 16.1-3.6l0.1 0 0.1 0 242.5-113.9 1.2-0.6 1-1 413.3-413.3c12.8-12.8 19.8-29.8 19.8-47.8 0-18-7-35-19.8-47.8l-83.8-83.8C844 71 827 64 809 64c-18 0-35 7-47.7 19.8L348 497.1l-1 1-0.6 1.2-114 242.5c-5.6 12-4.8 25.2 2.2 36.2C241.6 788.9 253.8 795.6 266.4 795.6zM935.1 173.1c0.7 0.7 1.4 1.4 2 2.1C936.4 174.6 935.8 173.8 935.1 173.1L935.1 173.1zM897.4 214.4c0.1 0.3 0.1 0.6 0.1 1 0 0.6-0.1 1.2-0.3 1.6 0.2-0.4 0.3-1 0.3-1.6C897.5 215 897.4 214.7 897.4 214.4zM812.3 128.3l83.8 83.8L812.3 128.3c-0.1-0.1-0.2-0.2-0.3-0.3C812.1 128.2 812.2 128.2 812.3 128.3zM809 126.9 809 126.9c-0.5 0-0.9 0.1-1.3 0.2C808.1 127 808.6 126.9 809 126.9zM809 136.2l79.2 79.2-60.4 60.4-79.2-79.2L809 136.2zM698.6 246.6l79.2 79.2L485 618.6l-149.5 70.2 70.2-149.5L698.6 246.6zM380.4 574.9l-61.3 130.4 170.5-80.1L789 325.8l-90.3-90.3 90.3 90.3L489.6 625.2l-170.5 80.1L380.4 574.9zM279.3 784.9l242.5-113.9L279.3 784.9c-0.5 0.2-1.1 0.5-1.6 0.7C278.2 785.3 278.8 785.1 279.3 784.9zM237.6 750.6c-0.2 0.8-0.4 1.6-0.5 2.4C237.2 752.2 237.4 751.4 237.6 750.6z" p-id="5381" fill="#ffffff"></path></svg>