<?xml version="1.0" standalone="no"?><!DOCTYPE svg PUBLIC "-//W3C//DTD SVG 1.1//EN" "http://www.w3.org/Graphics/SVG/1.1/DTD/svg11.dtd"><svg t="1489484078792" class="icon" style="" viewBox="0 0 1024 1024" version="1.1" xmlns="http://www.w3.org/2000/svg" p-id="5756" xmlns:xlink="http://www.w3.org/1999/xlink" width="32" height="32"><defs><style type="text/css"></style></defs><path d="M925.657 261.456l-2.079-3.543-2.014 1.181L514.601 24.132 92.096 268.065v487.868l418.018 241.344 4.486 2.591 422.507-243.935V268.066l-11.45-6.61zM736.933 629.913V388.179l182.231-106.875v453.898L736.933 629.913zM110.04 735.038V288.432l182.23 105.289v234.442L110.04 735.038z m200.174-330.95l183.422 105.978L310.214 617.64V404.088z m9.203-15.406L514.6 275.993l190.56 110.018-193.723 113.615-192.02-110.944z m192.087 131.707l198.595 114.746-195.498 112.872-197.135-113.818 194.038-113.8z m17.8-10.439L718.99 398.703v220.844L529.304 509.95z m374.458-240.416L722.963 375.57 514.601 255.273l-213.12 123.046-182.163-105.25L514.601 44.852l389.161 224.682z m-792.868 8.398l-0.854 1.479v-0.985l0.854-0.494z m7.968 472.735l180.8-106.036L514.6 768.724l213.437-123.226 182.164 105.251-395.6 228.397-395.739-228.479z" p-id="5757" fill="#6B92D5"></path><path d="M514.601 1012.817L80.881 762.409V261.591l433.72-250.409 406.92 234.936 6.058-3.552 6.253 10.66 14.491 8.367V762.41l-433.722 250.407zM141.16 750.591L514.6 966.197l373.177-215.452-159.742-92.297-213.434 123.225-214.894-124.067-158.547 92.985z m198.604-116.478l174.837 100.943 173.075-99.926-176.13-101.766-171.782 100.749z m408.383-10.673l159.801 92.33V300.883l-159.801 93.72V623.44zM121.254 307.864v407.595l159.801-93.721V400.193l-159.801-92.329z m430.342 202.013l156.179 90.237V418.282l-156.179 91.595z m-230.167-86.356v174.54l149.915-87.922-149.915-86.618z m20.412-34.835l169.553 97.964 171.467-100.563L514.6 288.943l-172.759 99.743zM141.743 273.072l159.741 92.296 213.117-123.043 208.318 120.271 158.544-92.985-366.862-211.81-372.858 215.271z" p-id="5758" fill="#6B92D5"></path></svg>