<?xml version="1.0" encoding="utf-8"?>
<!-- Generator: Adobe Illustrator 21.0.2, SVG Export Plug-In . SVG Version: 6.00 Build 0)  -->
<svg version="1.1" id="图层_1" xmlns="http://www.w3.org/2000/svg" xmlns:xlink="http://www.w3.org/1999/xlink" x="0px" y="0px"
	 viewBox="0 0 722.3 718.5" style="enable-background:new 0 0 722.3 718.5;" xml:space="preserve">
<style type="text/css">
	.st0{fill-rule:evenodd;clip-rule:evenodd;fill:#B9D3FF;}
	.st1{fill-rule:evenodd;clip-rule:evenodd;fill:#4E8BED;}
	.st2{fill-rule:evenodd;clip-rule:evenodd;fill:#FFFFFF;}
	.st3{fill:#4E8BED;}
</style>
<g>
	<path class="st0" d="M360.5,359.2L360.5,359.2z M20.7,359.2c0,187.7,152.2,339.9,339.9,339.9c187.7,0,339.9-152.2,339.9-339.9
		c0-187.7-152.2-339.9-339.9-339.9C172.8,19.4,20.7,171.5,20.7,359.2"/>
	<path class="st1" d="M360.5,718.5C162.5,718.5,1.3,557.3,1.3,359.2C1.3,161.2,162.5,0,360.5,0c198.1,0,359.2,161.2,359.2,359.2
		C719.8,557.3,558.6,718.5,360.5,718.5L360.5,718.5z M360.5,38.8c-176.7,0-320.5,143.8-320.5,320.5c0,176.7,143.8,320.5,320.5,320.5
		C537.3,679.7,681,536,681,359.2C681,182.5,537.3,38.8,360.5,38.8L360.5,38.8z"/>
	<polygon class="st2" points="0,230.7 722.3,230.7 722.3,489 0,489 0,230.7 	"/>
	<g>
		<path class="st3" d="M153.8,432H38.7V291.5h90.2l24.9,30.2V432z M132.3,412v-81.6l-15.5-19.3H61.3V412H132.3z"/>
		<path class="st3" d="M313.6,432H292l-11.3-51.7h-64.9L205.2,432h-21.5l26.8-140.5H286L313.6,432z M277.7,359.5l-9.1-47.2h-41.5
			l-8.7,47.2H277.7z"/>
		<path class="st3" d="M390.2,432h-23.4V291.5h23.4V432z"/>
		<path class="st3" d="M552.2,432H443.1V291.5h23.4V412h85.7V432z"/>
		<path class="st3" d="M700.2,291.5L646.6,378v54h-22.7v-52.9l-52.9-87.6h24.2l40,66.5l40.8-66.5H700.2z"/>
	</g>
</g>
</svg>
