<?xml version="1.0" standalone="no"?><!DOCTYPE svg PUBLIC "-//W3C//DTD SVG 1.1//EN" "http://www.w3.org/Graphics/SVG/1.1/DTD/svg11.dtd"><svg t="1489483458692" class="icon" style="" viewBox="0 0 1024 1024" version="1.1" xmlns="http://www.w3.org/2000/svg" p-id="3678" xmlns:xlink="http://www.w3.org/1999/xlink" width="32" height="32"><defs><style type="text/css"></style></defs><path d="M513.6 3C231.9 3 3.6 231.3 3.6 513s228.3 510 510 510 510-228.3 510-510S795.3 3 513.6 3z m118.1 720.5c-7.9 8.1-18.8 12.7-30.1 12.5-6.1 0.2-12.1-1.1-17.7-3.7-4.8-2.4-9-5.8-12.4-10-4.4-6-8-12.6-10.8-19.5-3.4-7.7-6.6-15.3-9.8-23.1l-20.6-54.1H355L334.5 681c-8.1 21.5-14.9 36.1-20.6 43.7-5.7 7.6-15 11.4-28 11.4-10.9 0-21.4-4.3-29.1-12-8.4-8.1-12.7-17.1-12.7-27.3 0-5.9 1-12 3-18.3 1.9-6.3 5.2-15 9.7-26.2l110.3-280.1 11.3-29c4.4-11.3 9.1-20.6 14.1-28.1 5-7.4 11.6-13.4 19.7-18.1 8.1-4.6 18.2-7 30.1-7 12.2 0 22.3 2.3 30.4 7 8.2 4.6 14.7 10.5 19.7 17.8 5 7.2 9.2 15.1 12.7 23.4 3.4 8.3 7.8 19.5 13.1 33.4L631 649.8c8.8 21.2 13.3 36.6 13.3 46.2-0.1 10-4.2 19.1-12.6 27.5z m151.4-36.4c0 16.1-3.8 28.3-11.5 36.5-7.4 8.2-18.1 12.7-29.1 12.4-11 0.3-21.5-4.3-28.7-12.7-7.4-8.4-11-20.5-11-36.2V457.4c0-15.8 3.7-27.8 11-35.9 7.3-8 17.8-12.4 28.7-12 11-0.3 21.5 4.1 29.1 12 7.7 8.1 11.5 19.2 11.5 33.6v232z m-11.8-325.5c-7.7 6.9-17.6 10.6-27.9 10.5-10.5 0.2-20.7-3.5-28.7-10.3-7.9-6.9-11.9-16.5-11.9-29.1-0.3-10.7 4.2-21 12.2-28.1 7.7-7.2 17.8-11.1 28.4-11 10.4 0 19.6 3.3 27.7 10 8 6.7 12 16.4 12 29.1 0 12.3-4 22-11.8 28.9z" fill="#FF7E19" p-id="3679"></path><path d="M378 560.1h128.8l-65-178z" fill="#FF7E19" p-id="3680"></path></svg>